<?xml version="1.0" standalone="no"?>
<!DOCTYPE svg PUBLIC "-//W3C//DTD SVG 20010904//EN"
 "http://www.w3.org/TR/2001/REC-SVG-20010904/DTD/svg10.dtd">
<svg version="1.0" xmlns="http://www.w3.org/2000/svg"
 width="1280.000000pt" height="867.000000pt" viewBox="0 0 1280.000000 867.000000"
 preserveAspectRatio="xMidYMid meet">

<g transform="translate(0.000000,867.000000) scale(0.100000,-0.100000)"
fill="#000000" stroke="none">
<path d="M4070 8664 c-19 -2 -87 -9 -150 -15 -488 -45 -1043 -206 -1495 -432
-1151 -575 -1997 -1624 -2310 -2863 -58 -233 -121 -619 -103 -630 5 -3 122 -3
261 0 139 3 639 11 1112 16 473 6 938 13 1032 16 l173 6 156 217 c177 244 198
268 308 357 153 125 312 220 477 284 198 77 314 100 507 100 l134 0 72 -73
c116 -117 245 -164 383 -138 211 39 352 210 353 427 0 185 -110 345 -282 411
-62 23 -208 23 -275 0 -78 -27 -163 -95 -212 -168 l-43 -64 -131 3 c-369 10
-754 -98 -1053 -293 -192 -126 -421 -342 -549 -518 l-70 -96 -877 -1 c-528 0
-878 4 -878 9 0 19 72 259 107 356 57 161 100 260 187 435 554 1114 1612 1897
2836 2099 234 38 338 46 645 46 312 -1 434 -11 690 -56 443 -80 948 -272 1314
-499 l101 -63 0 -67 c0 -113 49 -226 135 -311 221 -220 600 -150 731 136 145
315 -114 671 -466 639 -65 -6 -65 -6 -142 45 -160 105 -428 249 -616 330 -388
169 -806 282 -1252 337 -127 15 -714 29 -810 18z"/>
<path d="M5443 7550 c-54 -11 -127 -43 -176 -77 l-38 -26 -137 27 c-75 14
-184 33 -242 42 -143 22 -573 30 -738 15 -652 -61 -1282 -319 -1787 -730 -111
-90 -172 -147 -300 -277 l-110 -112 -88 -5 c-73 -4 -99 -10 -163 -41 -294
-139 -364 -527 -135 -754 31 -32 79 -69 107 -84 183 -99 408 -68 554 75 116
115 161 258 136 434 l-8 52 79 81 c173 181 429 380 633 492 131 72 167 90 275
137 220 96 459 164 706 202 119 19 188 23 394 23 151 1 288 -4 345 -12 87 -12
332 -59 335 -65 0 -1 12 -27 25 -57 133 -293 516 -367 750 -144 103 98 158
240 147 374 -17 187 -136 344 -312 410 -67 25 -186 34 -252 20z"/>
<path d="M12349 5513 c-125 -62 -197 -186 -186 -319 22 -274 355 -397 549
-202 24 24 54 65 67 92 20 43 22 62 19 145 -4 112 -20 154 -86 219 -63 64
-134 92 -230 92 -65 0 -87 -5 -133 -27z m249 -62 c51 -26 115 -99 130 -149 38
-127 -14 -253 -132 -315 -57 -30 -164 -30 -223 1 -101 53 -149 138 -141 251 9
117 80 203 193 232 46 12 128 3 173 -20z"/>
<path d="M12348 5394 c-5 -4 -8 -81 -8 -171 l0 -163 45 0 45 0 0 59 c0 33 4
62 9 65 23 15 62 -16 88 -69 27 -54 28 -55 70 -55 24 0 43 5 43 10 0 19 -42
94 -67 122 -25 26 -25 26 -5 37 28 15 45 71 33 104 -17 45 -55 61 -155 65 -50
2 -94 1 -98 -4z m166 -86 c17 -27 -5 -52 -48 -56 l-36 -3 0 41 0 41 36 -3 c22
-2 42 -10 48 -20z"/>
<path d="M9151 5125 c-55 -16 -130 -53 -166 -83 -12 -9 -41 -42 -65 -72 -46
-56 -73 -113 -475 -1004 -91 -203 -172 -381 -179 -395 -8 -14 -17 -36 -20 -48
l-7 -23 248 0 248 0 24 62 c13 34 36 90 52 125 l28 63 478 -2 477 -3 52 -120
51 -120 242 -3 c132 -1 241 0 241 4 0 10 -52 126 -295 659 -128 281 -256 562
-284 626 -81 178 -163 269 -291 320 -73 29 -276 37 -359 14z m208 -412 c18
-15 271 -580 271 -605 0 -4 -142 -8 -315 -8 -173 0 -315 4 -315 9 0 5 9 28 19
52 11 24 65 152 121 284 56 132 111 250 122 263 26 26 68 29 97 5z"/>
<path d="M3610 4305 l0 -805 215 0 215 0 0 805 0 805 -215 0 -215 0 0 -805z"/>
<path d="M4214 5097 c-2 -7 -3 -102 -2 -212 l3 -200 353 -3 352 -2 0 -590 0
-590 215 0 215 0 0 590 0 590 353 2 352 3 0 210 0 210 -918 3 c-739 2 -919 0
-923 -11z"/>
<path d="M6672 4898 l3 -213 353 -3 352 -2 0 -590 0 -590 215 0 215 0 0 590 0
590 353 2 352 3 0 210 0 210 -923 3 -922 2 2 -212z"/>
<path d="M10110 4895 l0 -215 353 -2 352 -3 3 -587 2 -588 215 0 215 0 0 590
0 590 350 0 350 0 0 215 0 215 -920 0 -920 0 0 -215z"/>
<path d="M10 3918 c0 -18 9 -91 20 -163 211 -1434 1122 -2676 2428 -3311 467
-227 937 -360 1482 -420 235 -26 678 -24 917 5 526 62 970 190 1418 405 182
88 341 177 470 262 l80 53 75 -6 c378 -28 626 376 425 692 -40 64 -122 137
-188 169 -74 36 -190 53 -268 38 -218 -40 -379 -227 -379 -439 l0 -63 -52 -34
c-402 -257 -916 -453 -1400 -536 -421 -71 -894 -71 -1323 0 -1289 215 -2415
1115 -2923 2336 -71 171 -182 506 -182 551 0 11 166 13 874 13 l874 0 63 -82
c354 -468 791 -739 1314 -813 55 -8 177 -15 271 -15 l170 0 17 -35 c9 -19 33
-53 54 -75 89 -99 199 -144 335 -138 75 4 96 9 161 41 90 44 152 109 200 206
30 63 32 72 32 181 0 108 -2 119 -32 182 -74 157 -215 248 -382 248 -134 0
-206 -33 -311 -139 l-75 -76 -145 0 c-114 1 -167 6 -249 24 -248 55 -464 158
-691 332 -125 96 -178 155 -344 386 l-158 221 -432 6 c-237 4 -712 11 -1056
16 -344 6 -730 10 -857 10 l-233 0 0 -32z"/>
<path d="M11137 3262 c-36 -39 -11 -91 44 -92 36 0 62 22 62 55 0 51 -71 75
-106 37z"/>
<path d="M9730 3011 l0 -251 48 0 c46 0 49 2 102 65 30 35 59 63 64 62 5 -2
26 -30 46 -63 l35 -59 58 -3 c31 -2 57 1 57 5 0 4 -27 51 -60 103 -33 52 -60
99 -60 105 0 6 24 40 54 75 30 35 52 68 50 72 -3 4 -25 8 -49 8 -44 0 -46 -2
-112 -81 -38 -45 -80 -96 -95 -113 l-27 -31 -2 163 c-1 89 -2 168 -3 175 -1 7
-21 13 -53 15 l-53 3 0 -250z"/>
<path d="M5859 3236 c-115 -41 -171 -117 -172 -235 -1 -159 130 -263 313 -248
121 10 206 74 236 176 40 134 -30 267 -160 306 -61 18 -168 19 -217 1z m204
-104 c52 -30 72 -67 72 -132 0 -68 -21 -105 -76 -132 -48 -25 -139 -24 -190 3
-98 49 -101 209 -6 261 59 31 147 32 200 0z"/>
<path d="M6330 3230 c-25 -25 -25 -51 -1 -81 16 -21 17 -26 5 -56 -19 -45 -18
-55 8 -51 29 4 88 100 88 144 0 57 -60 84 -100 44z"/>
<path d="M1742 3164 c-233 -62 -385 -299 -342 -534 40 -223 235 -390 454 -390
l61 0 123 -125 c298 -303 580 -505 952 -683 315 -151 593 -236 960 -294 128
-20 182 -22 460 -23 339 0 477 14 715 70 l100 23 33 -24 c50 -39 130 -72 206
-85 221 -38 447 99 519 315 124 367 -233 721 -600 595 -116 -40 -209 -122
-269 -241 -18 -36 -41 -69 -51 -72 -10 -3 -79 -16 -153 -30 -586 -107 -1198
-21 -1725 241 -294 147 -528 314 -745 532 l-115 116 0 140 0 141 -37 75 c-102
206 -329 312 -546 253z"/>
<path d="M6583 3130 c-85 -20 -139 -104 -131 -202 6 -68 24 -104 70 -141 68
-54 178 -46 237 17 14 14 28 26 33 26 4 0 8 -40 8 -90 l0 -90 50 0 50 0 -2
238 -3 237 -47 3 -48 3 0 -35 c0 -20 -3 -36 -6 -36 -3 0 -22 13 -42 29 -20 16
-55 34 -77 40 -44 12 -47 12 -92 1z m157 -106 c17 -15 38 -40 46 -56 14 -27
13 -32 -6 -62 -36 -59 -97 -85 -155 -66 -44 14 -65 49 -65 105 0 38 5 52 29
76 40 40 105 41 151 3z"/>
<path d="M8296 3125 c-21 -7 -51 -26 -67 -40 l-28 -28 -8 34 c-8 30 -13 34
-47 37 -63 5 -65 3 -50 -75 7 -37 13 -119 14 -180 l0 -113 50 0 50 0 0 99 c0
54 5 112 11 130 20 56 95 78 140 42 22 -18 24 -28 29 -143 l5 -123 53 -3 52
-3 0 116 c0 115 0 117 29 146 31 31 64 36 104 18 38 -17 47 -50 47 -170 l0
-110 53 3 52 3 0 130 c-1 169 -20 210 -113 234 -57 16 -113 -2 -152 -46 l-30
-34 -30 35 c-18 20 -44 37 -63 41 -18 4 -39 8 -47 10 -8 2 -32 -2 -54 -10z"/>
<path d="M9005 3135 c-5 -2 -22 -6 -37 -9 -40 -9 -95 -61 -109 -103 -18 -55
-14 -135 10 -181 51 -101 194 -121 286 -40 l34 29 7 -35 6 -36 55 0 54 0 -8
63 c-9 71 -10 143 -3 237 l5 65 -50 0 c-46 0 -50 -2 -53 -25 -6 -40 -17 -43
-50 -12 -36 34 -113 58 -147 47z m115 -100 c35 -18 70 -66 70 -95 0 -32 -69
-97 -111 -105 -72 -13 -125 34 -123 112 2 85 84 129 164 88z"/>
<path d="M9603 3132 c-32 -3 -76 -38 -100 -77 -10 -18 -12 -16 -18 23 -8 46
-26 57 -81 50 -24 -2 -29 -7 -26 -28 2 -14 6 -96 9 -182 l5 -158 54 0 54 0 0
103 c0 83 4 108 20 134 22 36 72 55 125 46 l35 -6 0 46 c0 49 -10 55 -77 49z"/>
<path d="M10283 3128 c-29 -6 -52 -21 -77 -48 -114 -127 -36 -329 128 -330 45
0 122 34 139 61 15 24 27 24 27 0 0 -43 10 -51 66 -51 l53 0 -7 53 c-8 61 -9
190 -2 262 l5 50 -50 0 c-46 0 -50 -2 -59 -30 -14 -42 -13 -41 -44 -13 -51 48
-108 62 -179 46z m154 -99 c32 -20 63 -64 63 -90 0 -23 -53 -81 -88 -96 -69
-29 -137 8 -149 80 -7 43 11 92 41 112 30 22 93 18 133 -6z"/>
<path d="M6987 3124 c-4 -4 -7 -64 -7 -133 0 -104 3 -132 19 -161 48 -91 169
-108 247 -35 43 41 44 41 44 16 0 -42 10 -51 62 -51 l50 0 -6 38 c-4 20 -9
103 -12 185 l-6 147 -49 0 -49 0 0 -92 c0 -155 -23 -198 -105 -198 -32 0 -47
6 -66 26 -22 23 -24 36 -29 142 l-5 117 -40 3 c-23 2 -44 0 -48 -4z"/>
<path d="M7446 3122 c-3 -6 32 -89 79 -186 l84 -176 61 0 61 0 85 176 c46 96
82 179 79 184 -8 13 -93 10 -103 -3 -5 -7 -33 -67 -63 -134 -29 -68 -57 -119
-60 -115 -4 4 -32 63 -62 132 l-54 125 -51 3 c-27 2 -53 -1 -56 -6z"/>
<path d="M10687 3124 c-4 -4 -7 -22 -7 -41 l0 -33 123 0 122 -1 -36 -32 c-19
-17 -74 -65 -122 -106 -82 -69 -87 -76 -87 -112 l0 -39 190 0 190 0 0 40 0 39
-121 3 -120 3 121 104 c117 100 121 105 118 140 l-3 36 -181 3 c-99 1 -183 -1
-187 -4z"/>
<path d="M11130 2943 l0 -183 49 0 c49 0 50 1 53 33 2 17 2 100 0 182 l-3 150
-49 0 -50 0 0 -182z"/>
</g>
</svg>
